<?xml version="1.0" encoding="UTF-8"?>
<!-- Generator: visioncortex VTracer 0.6.3 -->
<svg version="1.1" xmlns="http://www.w3.org/2000/svg" width="1280" height="605">
<path d="M0 0 C422.4 0 844.8 0 1280 0 C1280 199.65 1280 399.3 1280 605 C857.6 605 435.2 605 0 605 C0 405.35 0 205.7 0 0 Z " fill="#FCFCFC" transform="translate(0,0)"/>
<path d="M0 0 C1.15 0 2.3 0.01 3.49 0.01 C11.47 0.13 18.61 0.63 26.19 3.31 C27.7 3.82 27.7 3.82 29.23 4.34 C36.78 7.18 42.97 11.21 49.19 16.31 C49.81 16.82 50.44 17.33 51.08 17.86 C75.71 40.24 83.27 80.15 84.84 111.7 C85.02 114.54 85.02 114.54 87.19 117.31 C87.84 116.67 88.5 116.03 89.18 115.36 C122.79 83.43 168.47 62.09 214.75 58.57 C217.14 58.37 217.14 58.37 219.25 57.79 C221.32 57.28 223.13 57.18 225.26 57.18 C226.01 57.18 226.76 57.18 227.53 57.18 C228.31 57.18 229.08 57.18 229.88 57.19 C230.66 57.18 231.44 57.18 232.25 57.18 C238.06 57.19 238.06 57.19 239.19 58.31 C241.41 58.6 243.64 58.84 245.88 59.06 C260.36 60.74 274.52 64.16 288.31 68.88 C289.15 69.16 289.98 69.44 290.84 69.73 C295.17 71.27 298.21 72.64 301.19 76.31 C300.32 76.52 299.46 76.73 298.57 76.94 C240.23 91.21 181.31 111.58 131.19 145.31 C130.35 145.88 129.51 146.44 128.64 147.02 C117.97 154.23 107.81 161.75 98.19 170.31 C96.81 171.5 95.44 172.69 94.06 173.88 C92.77 175.02 91.48 176.16 90.19 177.31 C89.3 178.09 88.42 178.87 87.5 179.68 C81.98 184.61 76.92 189.62 72.19 195.31 C71.33 196.3 70.48 197.29 69.6 198.31 C58.64 209.66 58.64 209.66 52.19 223.31 C51.53 222.98 50.87 222.65 50.19 222.31 C50.11 220.49 50.11 220.49 50.04 218.64 C48.93 186.92 48.93 186.92 46.19 155.31 C46.07 154.3 45.95 153.29 45.82 152.25 C40.86 112.31 31.37 61.41 0.96 32.17 C-0.81 30.31 -0.81 30.31 -0.81 28.31 C-1.8 27.98 -2.79 27.65 -3.81 27.31 C-3.81 26.65 -3.81 25.99 -3.81 25.31 C-4.39 25.05 -4.97 24.79 -5.57 24.52 C-7.93 23.25 -9.72 21.8 -11.75 20.06 C-18.87 14.42 -27.21 11.06 -35.81 8.31 C-35.81 7.65 -35.81 6.99 -35.81 6.31 C-33.86 5.68 -31.9 5.06 -29.94 4.44 C-28.85 4.09 -27.76 3.74 -26.63 3.38 C-17.66 0.87 -9.32 -0.05 0 0 Z " fill="#EE2B26" transform="translate(272.8125,150.6875)"/>
<path d="M0 0 C5.03 3.55 8.07 8.19 11.25 13.38 C11.65 13.97 12.05 14.57 12.46 15.19 C18.49 24.65 19.65 36.23 17.78 47.11 C15.24 56.85 9.43 64.58 1.25 70.38 C-6.85 74.94 -17.71 74.65 -26.69 72.75 C-38.06 68.65 -46.3 61.04 -51.75 50.38 C-57.14 38.78 -57.18 26.42 -53.07 14.42 C-49.11 5.28 -42.46 -0.46 -33.56 -4.66 C-21.72 -9.22 -10.58 -6.31 0 0 Z " fill="#EE2B26" transform="translate(414.75,128.625)"/>
<path d="M0 0 C0.68 -0.01 1.36 -0.01 2.06 -0.02 C4 0.25 4 0.25 7 2.25 C5.47 3.45 3.94 4.66 2.41 5.86 C0.73 7.31 0.73 7.31 0 10.25 C0.6 10.5 1.21 10.75 1.83 11 C4.34 12.45 5.23 13.71 6.69 16.19 C7.1 16.88 7.52 17.57 7.95 18.28 C11.08 24.15 10.63 30.79 10 37.25 C7.19 45.09 0.49 49.71 -6.68 53.36 C-14.85 56.51 -22.44 56.52 -31.12 56.44 C-32.37 56.44 -33.62 56.44 -34.91 56.44 C-44.27 56.39 -44.27 56.39 -48.27 55.62 C-49.17 55.5 -50.07 55.38 -51 55.25 C-51.72 55.89 -52.44 56.53 -53.19 57.19 C-57.49 60.34 -61.83 59.58 -67 59.25 C-67 56.25 -67 56.25 -65.62 54.56 C-64 53.25 -64 53.25 -62 53.25 C-63.56 50.29 -64.86 48.36 -67.5 46.25 C-71.29 43.22 -73.04 39.94 -74 35.25 C-74.81 26.81 -73.88 19.98 -68.41 13.31 C-58.84 3.93 -44.45 1.4 -31.5 1 C-27.72 1.08 -24.1 1.69 -20.38 2.31 C-12.05 3.68 -7.51 -0.06 0 0 Z " fill="#EE2B26" transform="translate(1043,319.75)"/>
<path d="M0 0 C0.76 -0.05 1.51 -0.11 2.29 -0.16 C5.49 -0.22 7.72 -0.18 10.09 2.1 C11.5 4.23 12.57 6.36 13.62 8.69 C14.05 9.61 14.48 10.53 14.93 11.49 C16.29 14.51 17.59 17.56 18.88 20.62 C19.75 22.7 20.63 24.77 21.52 26.84 C21.9 27.75 22.28 28.65 22.67 29.59 C23.45 31.63 23.45 31.63 24.62 32.69 C25.28 31.34 25.28 31.34 25.95 29.97 C27.58 26.63 29.23 23.31 30.87 19.98 C31.58 18.54 32.29 17.1 32.99 15.66 C34 13.58 35.03 11.51 36.05 9.45 C36.36 8.8 36.68 8.15 37 7.49 C38.61 4.25 39.55 2.74 42.62 0.69 C45.52 0.49 48.3 0.41 51.19 0.44 C51.97 0.43 52.75 0.42 53.55 0.41 C59.37 0.43 59.37 0.43 61.62 2.69 C62.01 5.31 62.28 7.85 62.48 10.48 C62.57 11.66 62.57 11.66 62.67 12.86 C62.8 14.53 62.93 16.21 63.06 17.88 C63.25 20.39 63.45 22.89 63.66 25.4 C64.41 34.86 64.82 44.2 64.62 53.69 C61.69 53.74 58.75 53.78 55.81 53.81 C54.98 53.83 54.15 53.85 53.29 53.86 C52.08 53.87 52.08 53.87 50.86 53.88 C49.75 53.9 49.75 53.9 48.62 53.91 C46.62 53.69 46.62 53.69 43.62 51.69 C43.11 48.65 43.11 48.65 42.94 45.06 C42.87 43.87 42.81 42.69 42.74 41.46 C42.68 40.09 42.68 40.09 42.62 38.69 C41.67 40.19 41.67 40.19 40.69 41.71 C39.86 43.02 39.02 44.32 38.19 45.62 C37.77 46.28 37.35 46.94 36.91 47.62 C33.74 52.57 33.74 52.57 32.62 53.69 C30.38 53.89 28.13 54 25.88 54.06 C24.64 54.11 23.41 54.16 22.14 54.21 C17.63 53.54 16.42 52.24 13.62 48.69 C11.06 44.46 8.89 40.09 6.62 35.69 C6.29 41.63 5.97 47.57 5.62 53.69 C1.23 53.75 1.23 53.75 -3.25 53.81 C-4.63 53.84 -4.63 53.84 -6.04 53.87 C-6.77 53.87 -7.49 53.88 -8.24 53.88 C-8.99 53.89 -9.73 53.9 -10.5 53.91 C-12.38 53.69 -12.38 53.69 -14.38 51.69 C-15.4 42.51 -14.01 32.75 -13.26 23.57 C-13.06 21.1 -12.88 18.63 -12.71 16.16 C-12.58 14.59 -12.45 13.01 -12.32 11.43 C-12.27 10.7 -12.22 9.96 -12.17 9.21 C-11.92 6.34 -11.69 4.16 -10.06 1.74 C-6.99 -0.18 -3.5 0.05 0 0 Z " fill="#EF2B26" transform="translate(734.375,322.3125)"/>
<path d="M0 0 C6.83 -0.1 13.66 -0.17 20.5 -0.22 C22.82 -0.24 25.14 -0.27 27.46 -0.3 C30.81 -0.35 34.15 -0.37 37.5 -0.39 C38.53 -0.41 39.56 -0.43 40.62 -0.45 C46.83 -0.46 51.91 0.19 57 4 C60.7 9.54 59.62 17.44 59.7 23.99 C59.73 25.87 59.79 27.74 59.86 29.62 C59.97 32.34 60.02 35.05 60.05 37.77 C60.09 38.6 60.14 39.44 60.18 40.3 C60.16 44.09 59.85 46.16 57.1 48.88 C50.76 53.15 45.08 53.84 37.59 53.66 C36.02 53.65 36.02 53.65 34.42 53.64 C32.23 53.63 30.04 53.6 27.85 53.56 C24.48 53.5 21.12 53.48 17.75 53.47 C15.61 53.45 13.48 53.43 11.34 53.41 C10.34 53.4 9.33 53.39 8.29 53.38 C7.36 53.36 6.43 53.34 5.47 53.32 C4.25 53.3 4.25 53.3 3 53.28 C1 53 1 53 -1 51 C-1.25 48.91 -1.25 48.91 -1.24 46.31 C-1.25 45.33 -1.25 44.36 -1.25 43.35 C-1.25 42.3 -1.24 41.24 -1.23 40.16 C-1.23 38.54 -1.23 38.54 -1.23 36.88 C-1.23 34.6 -1.22 32.31 -1.21 30.02 C-1.19 26.51 -1.19 23.01 -1.19 19.5 C-1.18 17.28 -1.17 15.06 -1.17 12.84 C-1.17 11.79 -1.17 10.73 -1.16 9.65 C-1.16 8.67 -1.15 7.7 -1.15 6.69 C-1.14 5.83 -1.14 4.97 -1.13 4.09 C-1 2 -1 2 0 0 Z " fill="#EE2B26" transform="translate(402,323)"/>
<path d="M0 0 C7 -1.06 14.16 -1.92 20.88 0.71 C26.85 6.21 30.26 13.82 33.51 21.14 C34.97 23.86 36.61 25.64 38.88 27.71 C38.92 26.53 38.92 26.53 38.96 25.33 C39.08 21.81 39.2 18.29 39.32 14.77 C39.36 13.54 39.4 12.3 39.44 11.04 C39.48 9.87 39.52 8.7 39.57 7.49 C39.6 6.41 39.64 5.32 39.68 4.21 C39.88 1.71 39.88 1.71 40.88 0.71 C42.21 0.61 43.55 0.57 44.88 0.57 C45.69 0.57 46.49 0.57 47.32 0.57 C48.17 0.57 49.01 0.58 49.88 0.58 C51.15 0.57 51.15 0.57 52.45 0.57 C53.25 0.57 54.06 0.57 54.88 0.57 C55.63 0.57 56.37 0.58 57.13 0.58 C58.88 0.71 58.88 0.71 59.88 1.71 C59.98 3.33 60 4.96 60 6.59 C60 8.15 60 8.15 60 9.75 C59.99 10.88 59.99 12.01 59.98 13.18 C59.98 14.33 59.98 15.48 59.98 16.67 C59.97 20.37 59.96 24.07 59.95 27.77 C59.94 30.27 59.94 32.77 59.93 35.27 C59.92 41.42 59.9 47.56 59.88 53.71 C55.99 53.82 52.09 53.89 48.2 53.96 C47.09 53.99 45.99 54.02 44.85 54.06 C36.68 54.16 36.68 54.16 32.81 51.96 C31 49.84 29.31 47.77 27.77 45.45 C27.25 44.66 26.72 43.87 26.18 43.05 C25.65 42.24 25.12 41.42 24.57 40.58 C24.02 39.76 23.47 38.93 22.91 38.08 C18.88 31.98 18.88 31.98 18.88 29.71 C18.22 29.71 17.56 29.71 16.88 29.71 C16.89 30.74 16.89 30.74 16.9 31.8 C16.92 34.92 16.93 38.03 16.95 41.14 C16.95 42.23 16.96 43.32 16.97 44.44 C16.98 45.99 16.98 45.99 16.98 47.58 C16.99 49.01 16.99 49.01 17 50.48 C16.88 52.71 16.88 52.71 15.88 53.71 C13.08 53.83 10.31 53.89 7.51 53.89 C6.73 53.91 5.95 53.92 5.14 53.93 C1.21 53.94 -0.77 53.93 -4.12 51.71 C-4.49 49.66 -4.49 49.66 -4.49 47.12 C-4.49 46.17 -4.5 45.22 -4.51 44.24 C-4.49 42.69 -4.49 42.69 -4.48 41.12 C-4.48 40.06 -4.48 39 -4.48 37.92 C-4.48 35.68 -4.47 33.45 -4.45 31.21 C-4.43 27.79 -4.43 24.36 -4.44 20.93 C-4.43 18.77 -4.43 16.6 -4.42 14.43 C-4.42 13.4 -4.42 12.37 -4.42 11.31 C-4.41 10.36 -4.4 9.4 -4.39 8.42 C-4.38 7.16 -4.38 7.16 -4.38 5.88 C-4 2.72 -3.07 1.02 0 0 Z " fill="#EE2B26" transform="translate(562.1162109375,322.29443359375)"/>
<path d="M0 0 C17.49 -1.1 17.49 -1.1 22.83 2.52 C24.91 5.41 26.38 8.29 27.88 11.52 C28.97 13.32 30.11 15.08 31.26 16.84 C35.88 23.98 35.88 23.98 35.88 26.52 C36.87 26.85 37.86 27.18 38.88 27.52 C38.92 26.34 38.92 26.34 38.96 25.14 C39.07 21.62 39.19 18.1 39.32 14.58 C39.36 13.35 39.4 12.11 39.44 10.85 C39.48 9.68 39.52 8.51 39.56 7.3 C39.6 6.22 39.64 5.13 39.68 4.02 C39.88 1.52 39.88 1.52 40.88 0.52 C42.21 0.42 43.55 0.38 44.88 0.38 C45.68 0.38 46.49 0.38 47.32 0.38 C48.16 0.38 49.01 0.39 49.88 0.39 C51.15 0.38 51.15 0.38 52.44 0.38 C53.25 0.38 54.05 0.38 54.88 0.38 C55.62 0.38 56.37 0.38 57.13 0.39 C58.88 0.52 58.88 0.52 59.88 1.52 C59.97 3.14 60 4.77 59.99 6.4 C59.99 7.96 59.99 7.96 59.99 9.56 C59.99 10.69 59.98 11.82 59.98 12.99 C59.98 14.14 59.98 15.29 59.97 16.48 C59.97 20.18 59.96 23.88 59.94 27.58 C59.94 30.08 59.93 32.58 59.93 35.08 C59.92 41.22 59.9 47.37 59.88 53.52 C55.98 53.63 52.09 53.7 48.19 53.77 C47.09 53.8 45.99 53.83 44.85 53.87 C36.67 53.97 36.67 53.97 32.81 51.77 C30.99 49.65 29.31 47.58 27.77 45.26 C27.24 44.47 26.72 43.68 26.18 42.86 C25.64 42.05 25.11 41.23 24.57 40.39 C24.02 39.57 23.47 38.74 22.9 37.89 C18.88 31.79 18.88 31.79 18.88 29.52 C18.22 29.52 17.56 29.52 16.88 29.52 C16.89 30.55 16.89 30.55 16.9 31.61 C16.92 34.72 16.93 37.84 16.94 40.95 C16.95 42.04 16.96 43.13 16.97 44.25 C16.97 45.8 16.97 45.8 16.98 47.39 C16.99 48.82 16.99 48.82 16.99 50.29 C16.88 52.52 16.88 52.52 15.88 53.52 C13.08 53.64 10.31 53.7 7.51 53.7 C6.72 53.71 5.94 53.73 5.14 53.74 C1.2 53.75 -0.78 53.74 -4.12 51.52 C-4.49 49.47 -4.49 49.47 -4.49 46.93 C-4.5 45.98 -4.5 45.03 -4.51 44.05 C-4.5 42.5 -4.5 42.5 -4.48 40.93 C-4.48 39.87 -4.48 38.81 -4.48 37.73 C-4.48 35.49 -4.47 33.26 -4.46 31.02 C-4.43 27.6 -4.44 24.17 -4.44 20.74 C-4.44 18.58 -4.43 16.41 -4.42 14.24 C-4.42 13.21 -4.42 12.18 -4.42 11.12 C-4.41 10.17 -4.4 9.21 -4.39 8.23 C-4.39 6.97 -4.39 6.97 -4.38 5.68 C-4 2.55 -3.17 0.77 0 0 Z " fill="#EE2B26" transform="translate(1070.11962890625,322.48486328125)"/>
<path d="M0 0 C0.74 0.01 1.49 0.02 2.25 0.03 C3.46 0.04 3.46 0.04 4.69 0.05 C5.96 0.08 5.96 0.08 7.25 0.1 C8.52 0.12 8.52 0.12 9.82 0.13 C11.92 0.15 14.02 0.19 16.12 0.23 C23.22 12.35 29.82 24.73 36.44 37.12 C38.6 41.12 40.82 45.1 43.05 49.08 C44.12 51.23 44.12 51.23 44.12 53.23 C41.22 53.36 38.33 53.46 35.43 53.54 C34.62 53.58 33.8 53.62 32.96 53.67 C28.45 53.76 26.73 53.72 23.1 50.77 C22.45 49.93 21.79 49.09 21.12 48.23 C18.38 45.49 10.48 46.84 6.81 46.79 C5.56 46.74 4.31 46.7 3.02 46.65 C-0.38 46.61 -3.53 46.62 -6.88 47.23 C-9.19 50.15 -9.19 50.15 -10.88 53.23 C-13.98 54 -16.96 53.8 -20.13 53.6 C-21.39 53.56 -21.39 53.56 -22.68 53.52 C-24.75 53.45 -26.81 53.34 -28.88 53.23 C-29.94 50.54 -29.97 49.46 -28.9 46.72 C-28.38 45.78 -27.87 44.85 -27.34 43.89 C-26.48 42.31 -26.48 42.31 -25.6 40.69 C-24.97 39.57 -24.34 38.45 -23.69 37.29 C-22.74 35.56 -22.74 35.56 -21.77 33.8 C-19.83 30.27 -17.86 26.75 -15.88 23.23 C-15.28 22.16 -14.68 21.09 -14.07 19.98 C-12.43 17.06 -10.78 14.14 -9.13 11.23 C-8.63 10.34 -8.13 9.46 -7.61 8.55 C-7.15 7.74 -6.69 6.93 -6.21 6.1 C-5.8 5.4 -5.4 4.69 -4.99 3.97 C-2.67 0.32 -2.67 0.32 0 0 Z " fill="#EE2B26" transform="translate(664.87939453125,322.77294921875)"/>
<path d="M0 0 C7.37 -0.05 14.74 -0.09 22.11 -0.11 C24.62 -0.12 27.12 -0.13 29.63 -0.15 C33.23 -0.18 36.83 -0.19 40.43 -0.2 C41.56 -0.21 42.68 -0.22 43.85 -0.23 C44.89 -0.23 45.93 -0.23 47 -0.23 C47.92 -0.23 48.84 -0.24 49.79 -0.24 C52 0 52 0 54 2 C54 4.97 54 7.94 54 11 C42.78 11.33 31.56 11.66 20 12 C20.33 14.97 20.66 17.94 21 21 C21.72 20.99 22.44 20.99 23.19 20.98 C26.44 20.96 29.69 20.95 32.94 20.94 C34.07 20.93 35.21 20.92 36.38 20.91 C37.46 20.91 38.54 20.91 39.65 20.9 C41.15 20.89 41.15 20.89 42.68 20.89 C45 21 45 21 46 22 C46 25.3 46 28.6 46 32 C33.62 32.5 33.62 32.5 21 33 C21 35.31 21 37.62 21 40 C31.23 40.33 41.46 40.66 52 41 C52 41.66 52 42.32 52 43 C52.66 43 53.32 43 54 43 C54.03 44.48 54.05 45.96 54.06 47.44 C54.07 48.26 54.09 49.08 54.1 49.93 C54 52 54 52 53 53 C51.38 53.1 49.76 53.14 48.14 53.15 C47.11 53.15 46.08 53.16 45.01 53.16 C43.32 53.17 43.32 53.17 41.6 53.17 C40.45 53.17 39.3 53.17 38.12 53.18 C35.69 53.18 33.25 53.19 30.82 53.19 C27.08 53.19 23.35 53.21 19.61 53.22 C17.25 53.23 14.89 53.23 12.54 53.23 C11.41 53.24 10.29 53.24 9.13 53.25 C8.09 53.25 7.05 53.25 5.98 53.24 C5.07 53.24 4.15 53.25 3.21 53.25 C1 53 1 53 -1 51 C-1.25 48.91 -1.25 48.91 -1.24 46.31 C-1.25 45.33 -1.25 44.36 -1.25 43.35 C-1.25 42.3 -1.24 41.24 -1.23 40.16 C-1.23 38.54 -1.23 38.54 -1.23 36.88 C-1.23 34.6 -1.22 32.31 -1.21 30.02 C-1.19 26.51 -1.19 23.01 -1.19 19.5 C-1.18 17.28 -1.17 15.06 -1.17 12.84 C-1.17 11.79 -1.17 10.73 -1.16 9.65 C-1.16 8.67 -1.15 7.7 -1.15 6.69 C-1.14 5.83 -1.14 4.97 -1.13 4.09 C-1 2 -1 2 0 0 Z " fill="#EE2B26" transform="translate(1147,323)"/>
<path d="M0 0 C1.32 -0.01 1.32 -0.01 2.67 -0.02 C4.52 -0.02 6.38 -0.02 8.23 -0.01 C11.05 -0 13.87 -0.03 16.69 -0.06 C18.5 -0.07 20.31 -0.07 22.12 -0.06 C22.96 -0.07 23.79 -0.08 24.65 -0.1 C30.36 -0.03 34.88 1.13 39.63 4.43 C40.89 6.96 40.73 8.75 40.69 11.56 C40.68 12.47 40.67 13.38 40.66 14.32 C40.65 15.02 40.64 15.71 40.63 16.43 C37.55 16.55 34.46 16.62 31.38 16.68 C30.07 16.73 30.07 16.73 28.73 16.79 C22.1 16.89 22.1 16.89 19.57 14.43 C18.93 13.77 18.29 13.11 17.63 12.43 C14.7 11.92 11.84 12.06 8.88 12.18 C4.8 12.31 4.8 12.31 0.63 12.43 C0.3 21.67 -0.03 30.91 -0.37 40.43 C6.56 40.76 13.49 41.09 20.63 41.43 C20.96 40.11 21.29 38.79 21.63 37.43 C24.66 35.92 27.8 36.25 31.13 36.25 C32.16 36.23 32.16 36.23 33.22 36.21 C35.02 36.2 36.83 36.31 38.63 36.43 C40.63 38.43 40.63 38.43 40.82 40.82 C40.76 43.36 40.69 45.89 40.63 48.43 C32.19 54.51 23.35 54.24 13.39 54.14 C10.7 54.12 8.02 54.16 5.33 54.21 C-4.55 54.25 -12.23 53.71 -20.37 47.43 C-23.22 44.59 -21.69 34.43 -21.72 30.4 C-21.74 28.6 -21.76 26.79 -21.8 24.99 C-21.86 22.39 -21.88 19.8 -21.89 17.2 C-21.92 16.4 -21.94 15.59 -21.96 14.77 C-21.95 10.72 -21.73 8.93 -19.28 5.57 C-12.96 0.92 -7.59 -0.03 0 0 Z " fill="#EF2B26" transform="translate(868.37109375,322.56640625)"/>
<path d="M0 0 C1.29 -0.06 1.29 -0.06 2.61 -0.11 C7.04 -0.17 9.06 -0.17 12.63 2.66 C13.33 3.56 14.03 4.45 14.75 5.38 C15.98 6.63 17.21 7.88 18.44 9.12 C19.02 9.72 19.6 10.31 20.2 10.92 C21.71 12.47 21.71 12.47 23.75 13.38 C23.75 14.04 23.75 14.69 23.75 15.38 C28.02 13.12 30.73 10.39 33.88 6.75 C38.42 1.48 38.42 1.48 41.75 0.38 C44.6 0.23 47.4 0.14 50.25 0.12 C51.02 0.1 51.79 0.08 52.59 0.06 C58.35 0.02 58.35 0.02 60.49 1.9 C60.91 2.38 61.32 2.87 61.75 3.38 C61.04 3.98 61.04 3.98 60.32 4.59 C44.81 16.74 44.81 16.74 35.43 32.83 C35.4 33.77 35.37 34.72 35.34 35.7 C35.3 36.73 35.26 37.76 35.22 38.81 C35.19 39.89 35.16 40.96 35.12 42.06 C35.09 43.15 35.05 44.23 35.01 45.35 C34.91 48.02 34.83 50.7 34.75 53.38 C31.79 53.43 28.83 53.47 25.88 53.5 C24.61 53.53 24.61 53.53 23.32 53.55 C22.52 53.56 21.71 53.56 20.88 53.57 C20.14 53.58 19.4 53.59 18.63 53.6 C16.75 53.38 16.75 53.38 14.75 51.38 C14.57 49.29 14.57 49.29 14.65 46.72 C15.25 34.39 15.25 34.39 10 23.81 C8.28 22.3 6.53 20.82 4.75 19.38 C2.99 17.72 1.28 16.02 -0.43 14.31 C-1.58 13.17 -2.74 12.04 -3.91 10.93 C-6.98 7.95 -9.01 5.59 -10.25 1.38 C-8.01 -0.87 -3.01 0.05 0 0 Z " fill="#EE2B26" transform="translate(484.25,322.625)"/>
<path d="M0 0 C2.96 -0.05 5.92 -0.09 8.88 -0.12 C9.72 -0.14 10.56 -0.16 11.43 -0.18 C12.23 -0.18 13.04 -0.19 13.87 -0.2 C14.98 -0.21 14.98 -0.21 16.12 -0.23 C18 0 18 0 20 2 C20.25 4.13 20.25 4.13 20.24 6.8 C20.25 7.8 20.25 8.8 20.25 9.82 C20.25 10.9 20.24 11.98 20.23 13.1 C20.23 14.75 20.23 14.75 20.23 16.44 C20.23 18.78 20.22 21.12 20.21 23.46 C20.19 27.05 20.19 30.64 20.19 34.24 C20.18 36.5 20.17 38.77 20.17 41.04 C20.17 42.12 20.17 43.2 20.16 44.31 C20.16 45.31 20.15 46.3 20.15 47.33 C20.14 48.65 20.14 48.65 20.13 50 C20 52 20 52 19 53 C16.01 53.13 13.05 53.19 10.06 53.19 C9.23 53.2 8.39 53.21 7.53 53.22 C6.72 53.23 5.92 53.23 5.1 53.23 C4.36 53.23 3.62 53.24 2.86 53.24 C1 53 1 53 -1 51 C-1.25 48.91 -1.25 48.91 -1.24 46.31 C-1.25 45.33 -1.25 44.36 -1.25 43.35 C-1.25 42.3 -1.24 41.24 -1.23 40.16 C-1.23 38.54 -1.23 38.54 -1.23 36.88 C-1.23 34.6 -1.22 32.31 -1.21 30.02 C-1.19 26.51 -1.19 23.01 -1.19 19.5 C-1.18 17.28 -1.17 15.06 -1.17 12.84 C-1.17 11.79 -1.17 10.73 -1.16 9.65 C-1.16 8.67 -1.15 7.7 -1.15 6.69 C-1.14 5.83 -1.14 4.97 -1.13 4.09 C-1 2 -1 2 0 0 Z " fill="#EF2B26" transform="translate(813,323)"/>
<path d="M0 0 C4.96 2.43 8.82 5.88 11 11 C12.01 16.19 12.26 20.85 9.53 25.52 C6.21 29.43 3.83 31.64 -1.42 32.31 C-7.8 32.61 -11.55 31.9 -16.41 27.64 C-19.78 24.17 -20.86 22.03 -21.5 17.19 C-21.28 12.22 -19.25 8.69 -16 5 C-10.95 0.55 -6.66 -0.97 0 0 Z " fill="#EC9990" transform="translate(271,219)"/>
<path d="M0 0 C4.25 2.91 6.59 7.7 8.19 12.5 C8.75 18.34 7.69 21.95 4.19 26.5 C0.61 29.82 -2 31.28 -6.88 31.88 C-13.08 31.28 -18.51 28.81 -22.94 24.38 C-24.75 18.43 -24.88 12.67 -22.12 7.06 C-15.38 -0.41 -9.77 -1.74 0 0 Z " fill="#EE2B26" transform="translate(291.8125,323.5)"/>
<path d="M0 0 C1.91 0.13 1.91 0.13 3.91 1.13 C3.78 1.85 3.64 2.56 3.51 3.29 C2.54 8.56 1.62 13.82 0.91 19.13 C2.89 19.13 4.87 19.13 6.91 19.13 C7.06 18.59 7.2 18.05 7.35 17.5 C8.01 15.06 8.68 12.63 9.35 10.2 C9.58 9.35 9.81 8.5 10.04 7.62 C10.38 6.41 10.38 6.41 10.72 5.17 C11.03 4.04 11.03 4.04 11.34 2.9 C11.91 1.13 11.91 1.13 12.91 0.13 C14.41 0.03 15.91 0 17.41 0.01 C18.22 0.01 19.04 0 19.88 0 C21.91 0.13 21.91 0.13 22.91 1.13 C22.46 8.09 20.89 14.46 18.91 21.13 C20.28 21.01 20.28 21.01 21.68 20.88 C22.87 20.78 24.06 20.68 25.29 20.57 C26.47 20.47 27.65 20.36 28.87 20.25 C31.91 20.13 31.91 20.13 33.91 21.13 C33.91 21.79 33.91 22.45 33.91 23.13 C32.72 23.1 31.53 23.06 30.3 23.03 C28.73 23 27.16 22.97 25.6 22.95 C24.81 22.92 24.03 22.9 23.22 22.87 C22.46 22.86 21.7 22.85 20.92 22.84 C19.88 22.82 19.88 22.82 18.81 22.79 C16.35 23.23 15.59 24.33 13.91 26.13 C10.1 27.4 6.5 27.36 2.54 27.38 C1.78 27.4 1.02 27.42 0.25 27.45 C-4.29 27.48 -7.54 27.28 -11.09 24.13 C-13.23 19.43 -11.11 14.57 -9.71 9.88 C-9.48 9.06 -9.25 8.23 -9 7.38 C-6.88 0.02 -6.88 0.02 0 0 Z " fill="#EF2B26" transform="translate(774.08984375,401.8671875)"/>
<path d="M0 0 C0.12 0.87 0.12 0.87 0.25 1.75 C0.86 4.17 0.86 4.17 3 5.94 C5.4 8.41 5.68 9.6 6 13 C5.22 15.68 5.22 15.68 4.06 18.31 C3.68 19.2 3.3 20.08 2.91 20.99 C2.61 21.65 2.31 22.32 2 23 C1.34 23 0.68 23 0 23 C0 23.66 0 24.32 0 25 C-3.66 26.65 -6.81 27.34 -10.81 27.62 C-11.79 27.7 -12.76 27.77 -13.77 27.85 C-14.87 27.93 -14.87 27.93 -16 28 C-16.12 28.64 -16.25 29.28 -16.38 29.94 C-16.58 30.62 -16.79 31.3 -17 32 C-17.99 32.5 -17.99 32.5 -19 33 C-18.67 31.68 -18.34 30.36 -18 29 C-18.99 28.34 -19.98 27.68 -21 27 C-23.83 24.62 -23.98 24.12 -24.62 20.19 C-24.18 14.95 -22.39 10.26 -18.53 6.61 C-13.66 3.34 -8.68 3.59 -3 4 C-3 3.34 -3 2.68 -3 2 C-2.01 1.34 -1.02 0.68 0 0 Z " fill="#EF3733" transform="translate(1145,402)"/>
<path d="M0 0 C0.77 0 1.53 0.01 2.32 0.01 C3.58 0.02 3.58 0.02 4.86 0.02 C6.17 0.04 6.17 0.04 7.51 0.06 C8.39 0.06 9.26 0.06 10.16 0.06 C16.65 0.1 16.65 0.1 20.08 1.24 C22.91 5.5 22.72 9.25 22.08 14.24 C20.08 18.1 18.68 19.84 15.08 22.24 C10.28 23.36 5.6 23.36 0.7 23.31 C-0.03 23.3 -0.77 23.3 -1.53 23.29 C-3.33 23.28 -5.13 23.26 -6.92 23.24 C-7.86 20.24 -7.94 18.25 -7.22 15.2 C-7.04 14.46 -6.87 13.71 -6.69 12.95 C-6.5 12.18 -6.31 11.41 -6.11 10.62 C-5.84 9.45 -5.84 9.45 -5.57 8.27 C-3.69 0.47 -3.69 0.47 0 0 Z " fill="#EE2B26" transform="translate(970.923583984375,405.757080078125)"/>
<path d="M0 0 C3.47 2.93 5.55 6.07 6.58 10.5 C6.9 15.3 6.25 18.31 3.19 22.06 C0.27 25.12 -1.99 25.9 -6.25 26.31 C-11.61 25.87 -14.96 23.97 -18.88 20.19 C-20.81 16.43 -21.61 13.05 -20.38 8.91 C-18.21 4.08 -15.76 1.53 -11 -1 C-6.92 -2.36 -3.81 -1.79 0 0 Z " fill="#EC9990" transform="translate(206,312)"/>
<path d="M0 0 C3.66 2.8 5.97 5.48 7 10 C7.15 14.88 6.76 18.04 3.69 21.94 C-0.09 24.83 -2.55 26.4 -7.38 25.88 C-11.75 25.26 -14.63 23.96 -18 21 C-20.48 17.22 -20.22 13.55 -19.61 9.22 C-18.38 4.71 -15.67 2.07 -11.75 -0.44 C-7.66 -1.27 -4.02 -1.13 0 0 Z " fill="#EF2B26" transform="translate(245,262)"/>
<path d="M0 0 C3.54 2.36 4.91 5.54 6.25 9.5 C6.85 14.54 6.39 17.49 3.25 21.5 C0.31 24.7 -1.87 25.79 -6.12 26 C-10.98 25.77 -13.85 24.37 -17.75 21.5 C-20.36 17.33 -20.42 13.28 -19.75 8.5 C-15.29 -0.43 -9.09 -1.65 0 0 Z " fill="#EE2B26" transform="translate(252.75,305.5)"/>
<path d="M0 0 C2.38 2.07 4.2 4.42 6 7 C6.29 6.03 6.58 5.06 6.88 4.06 C8 1 8 1 10 0 C15.54 -0.23 15.54 -0.23 18 1 C17.34 7.86 15.76 14.34 14 21 C14.99 20.92 15.97 20.83 16.99 20.75 C18.91 20.59 18.91 20.59 20.88 20.44 C22.15 20.33 23.43 20.23 24.74 20.12 C28 20 28 20 30 21 C29.67 21.66 29.34 22.32 29 23 C25.1 22.95 21.21 22.85 17.31 22.75 C16.21 22.74 15.11 22.72 13.97 22.71 C5.78 22.46 5.78 22.46 1.73 20.08 C0 18 0 18 0 16 C-2.78 17.39 -2.98 19.16 -4 22 C-6.97 22 -9.94 22 -13 22 C-12.48 14.8 -11.58 7.79 -9 1 C-5.77 -0.62 -3.57 -0.48 0 0 Z " fill="#EE2B26" transform="translate(1180,406)"/>
<path d="M0 0 C2.12 2.38 2.12 2.38 4 5 C6.12 6.31 6.12 6.31 8 7 C7.96 6.22 7.92 5.43 7.88 4.62 C8 2 8 2 10 0 C13.5 -0.31 13.5 -0.31 17 0 C19 3 19 3 18.86 4.9 C18.59 5.95 18.59 5.95 18.32 7.01 C18.13 7.77 17.95 8.53 17.75 9.31 C17.44 10.49 17.44 10.49 17.12 11.69 C16.93 12.48 16.73 13.28 16.52 14.1 C16.02 16.07 15.51 18.04 15 20 C15.98 19.98 16.95 19.95 17.96 19.93 C19.23 19.91 20.5 19.89 21.81 19.88 C23.08 19.85 24.34 19.83 25.64 19.8 C29 20 29 20 32 22 C27.13 23.62 22.21 23.03 17.12 22.88 C15.49 22.86 15.49 22.86 13.82 22.84 C4.86 22.56 4.86 22.56 1.8 19.51 C1.21 18.68 0.61 17.85 0 17 C-0.33 16.67 -0.66 16.34 -1 16 C-1.66 17.98 -2.32 19.96 -3 22 C-5.97 22 -8.94 22 -12 22 C-13.08 18.76 -12.95 17.97 -12.07 14.8 C-11.85 14.01 -11.63 13.21 -11.41 12.39 C-11.17 11.56 -10.93 10.73 -10.69 9.88 C-10.46 9.04 -10.24 8.2 -10 7.34 C-8.7 2.72 -8.7 2.72 -8 1 C-5.13 -0.44 -3.18 -0.38 0 0 Z " fill="#EE2B26" transform="translate(823,406)"/>
<path d="M0 0 C1.26 -0.02 2.52 -0.03 3.81 -0.05 C4.86 0.07 5.92 0.19 7 0.31 C9.36 3.85 9.23 5.32 9.2 9.51 C9.19 10.72 9.18 11.93 9.18 13.17 C9.16 14.44 9.14 15.7 9.12 17 C9.12 18.27 9.11 19.55 9.1 20.86 C9.07 24.01 9.04 27.16 9 30.31 C6.19 30.34 3.38 30.36 0.56 30.38 C-0.24 30.38 -1.04 30.39 -1.87 30.4 C-3.91 30.41 -5.96 30.36 -8 30.31 C-10.7 27.61 -9.19 19.52 -9.19 15.88 C-9.21 13.98 -9.21 13.98 -9.22 12.04 C-9.23 10.83 -9.23 9.62 -9.23 8.38 C-9.23 7.26 -9.24 6.15 -9.24 5 C-8.72 -0.77 -4.86 0.01 0 0 Z " fill="#FDFDFD" transform="translate(431,333.6875)"/>
<path d="M0 0 C3.5 2 5.77 4.65 8 8 C8.77 12.22 8.74 16.22 7.08 20.21 C4.84 23.44 3.04 24.77 -0.82 25.64 C-6.16 25.94 -10.01 25.62 -14.19 22.12 C-16.38 19.92 -17.96 18.27 -18.05 15.05 C-17.59 9.06 -16.37 6.17 -12 2 C-8.51 -0.65 -4.22 -0.81 0 0 Z " fill="#EC9990" transform="translate(197,271)"/>
<path d="M0 0 C1.84 -0.02 1.84 -0.02 3.72 -0.04 C6.94 0.19 6.94 0.19 9.94 2.19 C8.53 5.41 6.87 7.44 4.3 9.83 C3.58 10.51 2.86 11.19 2.11 11.88 C1.35 12.58 0.59 13.28 -0.19 14 C-0.92 14.69 -1.66 15.37 -2.41 16.08 C-4.62 18.13 -6.84 20.16 -9.06 22.19 C-9.81 22.87 -10.56 23.55 -11.33 24.26 C-12.04 24.9 -12.76 25.54 -13.49 26.2 C-14.13 26.78 -14.77 27.35 -15.43 27.94 C-17.06 29.19 -17.06 29.19 -19.06 29.19 C-19.06 28.53 -19.06 27.87 -19.06 27.19 C-19.72 27.19 -20.38 27.19 -21.06 27.19 C-23.61 21.35 -23.49 16.13 -21.34 10.2 C-18.88 5.24 -15.9 3.43 -11.06 1.19 C-7.4 -0.03 -3.83 0.02 0 0 Z " fill="#FDFDFD" transform="translate(1012.0625,330.8125)"/>
<path d="M0 0 C1.67 0.06 1.67 0.06 3.38 0.12 C4.35 3.92 4.3 6.63 3.44 10.44 C3.24 11.32 3.05 12.2 2.85 13.11 C2.69 13.78 2.54 14.44 2.38 15.12 C4.03 15.45 5.67 15.79 7.38 16.12 C7.51 15.38 7.64 14.63 7.78 13.86 C7.95 12.87 8.13 11.89 8.31 10.88 C8.57 9.41 8.57 9.41 8.84 7.92 C9.81 2.84 9.81 2.84 10.38 1.12 C13.33 -0.35 16.12 0.06 19.38 0.12 C20.51 4.26 20.16 7.07 19.06 11.19 C18.8 12.21 18.53 13.23 18.26 14.29 C17.49 16.75 16.61 18.87 15.38 21.12 C16.36 21.04 17.35 20.96 18.37 20.87 C20.29 20.72 20.29 20.72 22.25 20.56 C23.53 20.46 24.8 20.35 26.12 20.25 C29.38 20.12 29.38 20.12 31.38 21.12 C31.38 21.79 31.38 22.44 31.38 23.12 C30.12 23.04 28.87 22.96 27.58 22.87 C25.93 22.77 24.28 22.67 22.62 22.56 C21.8 22.51 20.97 22.45 20.12 22.39 C19.33 22.34 18.53 22.3 17.7 22.25 C16.6 22.18 16.6 22.18 15.48 22.1 C13.28 22.13 11.49 22.56 9.38 23.12 C7.04 23.27 4.71 23.35 2.38 23.38 C1.16 23.4 -0.06 23.43 -1.31 23.45 C-4.82 23.11 -6.22 22.66 -8.62 20.12 C-9.52 13.98 -7.71 7.9 -5.62 2.12 C-3.62 0.12 -3.62 0.12 0 0 Z " fill="#EE2B26" transform="translate(1031.625,405.875)"/>
<path d="M0 0 C0.99 -0.33 1.98 -0.66 3 -1 C5.74 -1.07 8.45 -1.09 11.19 -1.06 C11.94 -1.06 12.69 -1.05 13.46 -1.05 C15.31 -1.04 17.15 -1.02 19 -1 C19.62 0.81 19.62 0.81 20 3 C19.34 3.99 18.68 4.98 18 6 C16.05 6.29 16.05 6.29 13.88 6.19 C12.6 6.13 11.32 6.06 10 6 C11.67 6.65 11.67 6.65 13.38 7.31 C17 9 17 9 19 12 C19 14.94 19 14.94 18 18 C13.15 22.16 9.41 22.6 3.31 22.44 C2.17 22.45 2.17 22.45 1.01 22.46 C-4.48 22.4 -4.48 22.4 -7.02 20.47 C-7.5 19.74 -7.5 19.74 -8 19 C-6.88 17 -6.88 17 -5 15 C-1.81 14.75 -1.81 14.75 1 15 C1 14.34 1 13.68 1 13 C0.07 12.78 0.07 12.78 -0.88 12.56 C-3 12 -3 12 -5 11 C-4.84 10.07 -4.67 9.14 -4.5 8.19 C-3.92 5.04 -3.92 5.04 -4 2 C-7.3 1.67 -10.6 1.34 -14 1 C-14 0.67 -14 0.34 -14 0 C-12.04 -0.19 -10.08 -0.38 -8.12 -0.56 C-6.49 -0.72 -6.49 -0.72 -4.82 -0.88 C-2 -1 -2 -1 0 0 Z " fill="#EF2C27" transform="translate(1074,407)"/>
<path d="M0 0 C0.99 0.66 1.98 1.32 3 2 C3.31 4.54 3.42 6.78 3.38 9.31 C3.38 10.63 3.39 11.94 3.4 13.3 C2.99 17.13 2.33 18.98 0 22 C-5.75 26.31 -10.03 27.2 -17.06 27.25 C-18.16 27.28 -18.16 27.28 -19.28 27.31 C-21.41 27.33 -21.41 27.33 -25 27 C-25.66 26.01 -26.32 25.02 -27 24 C-21.2 18.67 -15.4 13.35 -9.56 8.06 C-8.8 7.37 -8.04 6.68 -7.25 5.97 C-4.89 3.91 -2.46 1.94 0 0 Z " fill="#FDFDFD" transform="translate(1029,340)"/>
<path d="M0 0 C0.76 -0 1.52 -0.01 2.3 -0.01 C6.23 -0 9.85 0.16 13.69 1.12 C12.7 1.79 11.71 2.44 10.69 3.12 C10.36 4.12 10.03 5.11 9.69 6.12 C8.73 6.22 8.73 6.22 7.75 6.31 C6.93 6.39 6.1 6.48 5.25 6.56 C4.01 6.68 4.01 6.68 2.75 6.81 C0.7 6.91 0.7 6.91 -0.31 8.12 C6.1 9.26 11.88 8.81 18.36 8.18 C21.69 8.12 21.69 8.12 24.69 10.12 C16.27 10.62 16.27 10.62 7.69 11.12 C7.36 11.79 7.03 12.44 6.69 13.12 C4.88 13.5 4.88 13.5 2.69 13.69 C-0.1 13.75 -0.1 13.75 -2.31 15.12 C0.33 15.45 2.97 15.79 5.69 16.12 C6.07 17.78 6.4 19.45 6.69 21.12 C5.69 22.12 5.69 22.12 3.74 22.24 C2.91 22.23 2.07 22.23 1.21 22.22 C0.32 22.22 -0.58 22.22 -1.51 22.21 C-2.46 22.2 -3.4 22.2 -4.38 22.19 C-5.32 22.18 -6.27 22.18 -7.25 22.17 C-9.61 22.16 -11.96 22.15 -14.31 22.12 C-16.13 18.49 -14.01 14.34 -13 10.56 C-12.77 9.67 -12.55 8.78 -12.31 7.87 C-12.09 7.02 -11.87 6.18 -11.64 5.31 C-11.43 4.53 -11.23 3.75 -11.01 2.95 C-9.34 -1.41 -3.94 -0.02 0 0 Z " fill="#EE2C27" transform="translate(938.3125,405.875)"/>
<path d="M0 0 C1.55 0 3.1 0.02 4.66 0.04 C5.83 0.04 5.83 0.04 7.04 0.04 C12.88 0.09 12.88 0.09 15.16 1.23 C14.83 2.88 14.5 4.53 14.16 6.23 C13.2 6.32 13.2 6.32 12.22 6.41 C11.4 6.5 10.57 6.58 9.72 6.67 C8.48 6.79 8.48 6.79 7.22 6.91 C5.17 7.02 5.17 7.02 4.16 8.23 C6.47 8.89 8.78 9.55 11.16 10.23 C11.16 11.22 11.16 12.21 11.16 13.23 C9.11 13.46 7.05 13.69 5 13.91 C3.14 14.05 3.14 14.05 2.16 15.23 C3.46 15.37 4.76 15.52 6.09 15.67 C10.03 16.11 10.03 16.11 11.16 17.23 C11.16 18.88 11.16 20.53 11.16 22.23 C4.56 22.23 -2.04 22.23 -8.84 22.23 C-9.85 17.22 -9.38 14.27 -8.03 9.54 C-7.85 8.87 -7.67 8.19 -7.49 7.49 C-5.52 0.33 -5.52 0.33 0 0 Z " fill="#EF2B26" transform="translate(1222.84375,405.76953125)"/>
<path d="M0 0 C0.89 -0 1.78 -0 2.7 -0 C3.63 -0 4.57 0 5.54 0.01 C6.47 0 7.4 0 8.36 -0 C9.25 -0 10.14 -0 11.06 0 C11.88 0 12.7 0 13.55 0 C15.6 0.13 15.6 0.13 17.6 1.13 C17.6 2.45 17.6 3.77 17.6 5.13 C22.22 4.8 26.84 4.47 31.6 4.13 C31.27 5.12 30.94 6.11 30.6 7.13 C23.67 7.13 16.74 7.13 9.6 7.13 C9.27 9.77 8.94 12.41 8.6 15.13 C8.04 17.52 7.33 19.79 6.6 22.13 C3.3 22.13 -0 22.13 -3.4 22.13 C-4.86 19.22 -3.7 17.18 -2.88 14.18 C-2.32 11.78 -2.25 9.58 -2.4 7.13 C-3.72 6.8 -5.04 6.47 -6.4 6.13 C-5.3 0.01 -5.3 0.01 0 0 Z " fill="#EE2B26" transform="translate(894.40234375,405.8671875)"/>
<path d="M0 0 C1.65 3.66 2.34 6.81 2.62 10.81 C2.7 11.79 2.77 12.76 2.85 13.77 C2.9 14.51 2.95 15.24 3 16 C1.44 16.34 -0.12 16.67 -1.69 17 C-2.56 17.19 -3.43 17.37 -4.32 17.56 C-7 18 -9.3 18.29 -12 18 C-14.27 14.6 -14.37 12.83 -14.62 8.81 C-14.7 7.73 -14.77 6.64 -14.85 5.52 C-14.9 4.69 -14.95 3.86 -15 3 C-10.12 -0.25 -5.78 -0.11 0 0 Z " fill="#EE2B26" transform="translate(136,282)"/>
<path d="M0 0 C1.08 0.05 2.15 0.1 3.26 0.15 C4.39 0.2 5.52 0.26 6.68 0.32 C7.82 0.37 8.95 0.42 10.12 0.47 C12.93 0.6 15.74 0.74 18.55 0.88 C18.22 1.54 17.89 2.2 17.55 2.88 C12.93 2.88 8.31 2.88 3.55 2.88 C3.55 3.21 3.55 3.54 3.55 3.88 C4.23 3.86 4.91 3.83 5.6 3.81 C6.94 3.78 6.94 3.78 8.3 3.75 C9.19 3.73 10.07 3.71 10.98 3.68 C13.55 3.88 13.55 3.88 17.55 5.88 C12.6 6.21 7.65 6.54 2.55 6.88 C1.23 11.83 -0.09 16.78 -1.45 21.88 C-4.75 21.88 -8.05 21.88 -11.45 21.88 C-10.85 14.74 -9.76 7.69 -7.45 0.88 C-4.8 -0.45 -2.96 -0.14 0 0 Z " fill="#EE2B26" transform="translate(868.4453125,406.12109375)"/>
<path d="M0 0 C2.3 1.87 3.68 3.36 5 6 C5.28 8.93 5.5 11.15 5 14 C2.44 17.01 0.9 17.87 -3 18.44 C-6.36 17.95 -8.28 17.02 -11 15 C-12.55 11.9 -12.29 9.42 -12 6 C-8.61 0.8 -6.21 -0.62 0 0 Z " fill="#EF2B26" transform="translate(232,339)"/>
<path d="M0 0 C2.36 1.87 3.66 3.32 5 6 C5.41 9.66 5.21 11.59 3.5 14.88 C0.61 17.34 -1.26 17.62 -5.03 17.35 C-8 16.82 -9.76 16.03 -12 14 C-13.34 10.23 -13.19 8.5 -11.75 4.75 C-8.59 -0.22 -5.62 -0.59 0 0 Z " fill="#EF2B26" transform="translate(285,278)"/>
<path d="M0 0 C2.83 2.97 3.84 5.02 4.5 9.06 C3.85 12.89 2.97 14.47 0 17 C-4.65 17.66 -6.82 17.59 -11 15.5 C-13.29 12.64 -13.74 10.63 -13.48 6.97 C-11.75 -0.17 -6.22 -1.09 0 0 Z " fill="#EF2B26" transform="translate(172,350)"/>
<path d="M0 0 C2.36 1.87 3.66 3.32 5 6 C5.35 9.8 5.53 12.14 3.5 15.44 C0.02 17.61 -3.07 17.75 -7 17 C-10 15.5 -10 15.5 -12 13 C-12.79 8.01 -12.8 6.17 -9.94 2 C-6.26 -0.51 -4.37 -0.72 0 0 Z " fill="#EF2B26" transform="translate(163,302)"/>
<path d="M0 0 C2.93 2 4.65 3.43 5.45 6.97 C5.63 10.32 5.22 12.63 3.5 15.5 C0.01 17.59 -3.09 17.74 -7 17 C-10 15.5 -10 15.5 -12 13 C-12.79 8.01 -12.8 6.17 -9.94 2 C-6.22 -0.53 -4.41 -0.79 0 0 Z " fill="#EF2B26" transform="translate(216,245)"/>
<path d="M0 0 C2.58 2.11 3.74 3.67 4.38 6.97 C4.58 10.37 4.24 12.61 2.44 15.5 C-0.94 17.58 -3.1 17.48 -7 17 C-11.6 14.8 -11.6 14.8 -13 12 C-13.43 8.13 -13.32 6.48 -11.12 3.19 C-7.59 -0.45 -5.01 -0.52 0 0 Z " fill="#EF2B26" transform="translate(225,293)"/>
<path d="M0 0 C2.58 2.11 3.74 3.67 4.38 6.97 C4.58 10.37 4.24 12.61 2.44 15.5 C-0.94 17.58 -3.1 17.48 -7 17 C-11.6 14.8 -11.6 14.8 -13 12 C-13.43 8.13 -13.32 6.48 -11.12 3.19 C-7.59 -0.45 -5.01 -0.52 0 0 Z " fill="#EF2B26" transform="translate(156,257)"/>
<path d="M0 0 C0.66 4.29 1.32 8.58 2 13 C-2.12 14.29 -5.67 15.26 -10 15 C-10.33 15.66 -10.66 16.32 -11 17 C-13.63 11.63 -14.61 6.96 -15 1 C-13.63 0.63 -12.25 0.28 -10.88 -0.06 C-10.11 -0.26 -9.34 -0.46 -8.55 -0.66 C-6 -1 -6 -1 0 0 Z " fill="#EE2B26" transform="translate(105,315)"/>
<path d="M0 0 C3.43 8.43 3.43 8.43 3 13 C-1 14.33 -4.83 14.13 -9 14 C-9.66 13.67 -10.32 13.34 -11 13 C-11.41 10.5 -11.41 10.5 -11.62 7.44 C-11.7 6.43 -11.77 5.41 -11.85 4.37 C-11.9 3.59 -11.95 2.81 -12 2 C-7.88 0.71 -4.33 -0.26 0 0 Z " fill="#EF2B26" transform="translate(148,329)"/>
<path d="M0 0 C2.5 2.28 4.07 4.61 5.69 7.56 C6.12 8.35 6.56 9.13 7.01 9.94 C8 12 8 12 8 14 C3.71 14 -0.58 14 -5 14 C-6 11 -6 11 -4.79 8.3 C-4.22 7.31 -3.65 6.33 -3.06 5.31 C-2.5 4.32 -1.93 3.32 -1.35 2.3 C-0.9 1.54 -0.46 0.78 0 0 Z " fill="#FDFDFD" transform="translate(671,344)"/>
<path d="M0 0 C6.27 0.33 12.54 0.66 19 1 C18.34 2.65 17.68 4.3 17 6 C11.39 5.67 5.78 5.34 0 5 C0 3.35 0 1.7 0 0 Z " fill="#F8C0BE" transform="translate(1150,415)"/>
<path d="M0 0 C2.12 0.38 2.12 0.38 4 1 C5.03 3.79 5.05 4.87 4.06 7.75 C3.71 8.49 3.36 9.24 3 10 C1.02 10 -0.96 10 -3 10 C-2.25 2.25 -2.25 2.25 0 0 Z " fill="#FDFDFD" transform="translate(978,412)"/>
<path d="M0 0 C1.2 0.08 2.41 0.17 3.65 0.25 C5.22 0.36 6.8 0.46 8.38 0.56 C9.17 0.62 9.96 0.67 10.78 0.73 C15.02 1.15 15.02 1.15 19 0 C18.67 1.65 18.34 3.3 18 5 C16.72 4.81 15.44 4.63 14.12 4.44 C8.97 3.85 4.12 4.31 -1 5 C-0.67 3.35 -0.34 1.7 0 0 Z " fill="#FDFDFD" transform="translate(839,419)"/>
<path d="M0 0 C6.27 0.33 12.54 0.66 19 1 C18.67 2.32 18.34 3.64 18 5 C17.38 4.93 16.77 4.86 16.13 4.78 C10.38 4.15 4.78 3.91 -1 4 C-0.67 2.68 -0.34 1.36 0 0 Z " fill="#FDFDFD" transform="translate(1149,419)"/>
<path d="M0 0 C6.27 0.33 12.54 0.66 19 1 C19 2.32 19 3.64 19 5 C17.72 4.83 16.44 4.67 15.12 4.5 C10.07 3.93 5.08 3.9 0 4 C0 2.68 0 1.36 0 0 Z " fill="#FDFDFD" transform="translate(1196,415)"/>
<path d="M0 0 C0.33 0.99 0.66 1.98 1 3 C0.34 3.66 -0.32 4.32 -1 5 C-2.67 4.7 -4.34 4.35 -6 4 C-9 3.9 -12 3.94 -15 4 C-15 3.01 -15 2.02 -15 1 C-14 1.01 -13 1.02 -11.97 1.04 C-10.68 1.04 -9.39 1.05 -8.06 1.06 C-6.13 1.08 -6.13 1.08 -4.16 1.1 C-1.14 1.37 -1.14 1.37 0 0 Z " fill="#FDFDFD" transform="translate(927,407)"/>
<path d="M0 0 C0 0.66 0 1.32 0 2 C5.94 1.5 5.94 1.5 12 1 C12 1.66 12 2.32 12 3 C3.92 3.1 -3.98 3.13 -12 2 C-12 1.67 -12 1.34 -12 1 C-7.96 0.37 -4.09 -0.12 0 0 Z " fill="#ED7169" transform="translate(754,401)"/>
<path d="M0 0 C0.88 -0 1.75 -0.01 2.65 -0.01 C5.06 0.12 5.06 0.12 8.06 1.12 C8.06 1.79 8.06 2.44 8.06 3.12 C6.31 3.18 4.56 3.22 2.81 3.25 C1.84 3.27 0.86 3.3 -0.14 3.32 C-2.96 3.12 -4.55 2.57 -6.94 1.12 C-4.46 -0.11 -2.76 -0.01 0 0 Z " fill="#ED524B" transform="translate(952.9375,421.875)"/>
<path d="M0 0 C0 0.66 0 1.32 0 2 C-5.61 1.67 -11.22 1.34 -17 1 C-17 0.67 -17 0.34 -17 0 C-11.06 -0.89 -5.93 -0.97 0 0 Z " fill="#EF2B26" transform="translate(807,427)"/>
</svg>
